<svg id="Layer_1" data-name="Layer 1" xmlns="http://www.w3.org/2000/svg" viewBox="0 0 186 189">
  <g>
    <path d="M186,.45V164.22H.54c0-.54-.05-1.08-.05-1.62V2.43c0-.6.06-1.2.09-1.8l2.36,0H183.67C184.44.6,185.22.51,186,.45Zm-50.37,96c.17-.14.5-.29.5-.43.06-3.33.08-6.67.1-10,0-.2-.15-.31-.31-.08a4.21,4.21,0,0,0-.28.45,142.26,142.26,0,0,0-2.35-18.83,125.6,125.6,0,0,0-21.38-48.86c-.9-1.23-1.31-1.27-2.16.07-4.13,6.51-8.42,12.92-12.44,19.51-.7,1.14-.59,1.65.36,2.5a111.82,111.82,0,0,1,16.2,17.94,129,129,0,0,1,21.06,46.62Zm-97.19-1c36.82,6.58,66.79,24.42,90.65,53.16a112.28,112.28,0,0,0,.87-17.43,110.49,110.49,0,0,0-15.69-54.51A115.15,115.15,0,0,0,98.81,56.84,97.64,97.64,0,0,0,76.3,39.3c-1.16-.67-1.71-.52-2.4.61C70,46.28,65.77,52.46,61.84,58.82c-6,9.65-12.19,19.12-18.31,28.67C41.85,90.11,40.16,92.72,38.44,95.39Z" style="fill: #025072"/>
    <path d="M186,164.94v23.55l-21,0H21.13l-20.62,0L.4,165.06a.14.14,0,0,0,.13-.13l.55,0Z" style="fill: #ffcc07"/>
    <path d="M186,.45c-.78.06-1.56.15-2.33.15H2.94L.58.63.09.45c.33-.74,1-.33,1.45-.34,7.63,0,15.25,0,22.88,0q80,0,160,0C184.9.12,185.6-.3,186,.45Z" style="fill: #fff"/>
    <path d="M.54,164.21H186v.36H.53Z" style="fill: #285570"/>
    <path d="M.53,164.58H186v.36H1.08l-.55,0A.53.53,0,0,1,.53,164.58Z" style="fill: #1c3f72"/>
    <path d="M.53,164.58a.53.53,0,0,0,0,.35.14.14,0,0,1-.13.13.84.84,0,0,0-.31-.12V.45L.58.63c0,.6-.09,1.2-.09,1.8V162.59c0,.54,0,1.08.05,1.62Z" style="fill: #99a4b7"/>
    <path d="M21.13,188.51H165c0,.12,0,.23,0,.35H21.15C21.15,188.74,21.14,188.63,21.13,188.51Z" style="fill: #ffce25"/>
    <path d="M.09,164.94a.84.84,0,0,1,.31.12q.06,11.72.11,23.41l-.06.39c-.75-.33-.34-1-.34-1.45C.08,179.92.09,172.43.09,164.94Z" style="fill: #ffeec5"/>
    <path d="M164.94,188.86c0-.12,0-.23,0-.35l21,0c-.2.91-.9.33-1.27.33C178.13,188.87,171.54,188.86,164.94,188.86Z" style="fill: #ffd65b"/>
    <path d="M.45,188.86l.06-.39,20.62,0c0,.12,0,.23,0,.35Z" style="fill: #ffd65c"/>
    <path d="M38.44,95.39c1.72-2.67,3.41-5.28,5.09-7.9,6.12-9.55,12.35-19,18.31-28.67C65.77,52.46,70,46.28,73.9,39.91c.69-1.13,1.24-1.28,2.4-.61A97.64,97.64,0,0,1,98.81,56.84a115.15,115.15,0,0,1,15.46,19.77A110.49,110.49,0,0,1,130,131.12a112.28,112.28,0,0,1-.87,17.43C105.23,119.81,75.26,102,38.44,95.39Zm43.31.79A16.49,16.49,0,0,0,98.47,79.6a16.58,16.58,0,1,0-33.15-.2A16.35,16.35,0,0,0,81.75,96.18Z" style="fill: #fdca0d"/>
    <path d="M135.63,96.4c-.23,3-.47,5.93-.7,8.89a129,129,0,0,0-21.06-46.62,111.82,111.82,0,0,0-16.2-17.94c-1-.85-1.06-1.36-.36-2.5,4-6.59,8.31-13,12.44-19.51.85-1.34,1.26-1.3,2.16-.07a125.6,125.6,0,0,1,21.38,48.86,142.26,142.26,0,0,1,2.35,18.83l.05.72a65.86,65.86,0,0,0,0,8.66Z" style="fill: #fbca10"/>
    <path d="M135.63,96.4l.06-.68a33,33,0,0,0,0-8.66l-.05-.72a4.21,4.21,0,0,1,.28-.45c.16-.23.31-.12.31.08,0,3.33,0,6.67-.1,10C136.13,96.11,135.8,96.26,135.63,96.4Z" style="fill: #134674"/>
    <path d="M81.75,96.18A16.35,16.35,0,0,1,65.32,79.4,16.58,16.58,0,1,1,81.75,96.18ZM66.17,79.51c-.69,7.86,6.1,16.92,17.38,15.87,7.92-.75,14.09-6.47,14.12-15.86S91.2,63.71,81.76,63.57A15.24,15.24,0,0,0,66.17,79.51Z" style="fill: #20516d"/>
    <path d="M135.69,87.06a33,33,0,0,1,0,8.66A65.86,65.86,0,0,1,135.69,87.06Z" style="fill: #025072"/>
    <path d="M66.17,79.51A15.24,15.24,0,0,1,81.76,63.57c9.44.14,15.94,6.6,15.91,15.95s-6.2,15.11-14.12,15.86C72.27,96.43,65.48,87.37,66.17,79.51Z" style="fill: #065071"/>
  </g>
</svg>
