<?xml version="1.0" encoding="utf-8"?>
<!-- Generator: Adobe Illustrator 26.0.1, SVG Export Plug-In . SVG Version: 6.00 Build 0)  -->
<svg version="1.1" id="Layer_1" xmlns="http://www.w3.org/2000/svg" xmlns:xlink="http://www.w3.org/1999/xlink" x="0px" y="0px"
	 viewBox="0 0 437.5 116.5" style="enable-background:new 0 0 437.5 116.5;" xml:space="preserve">
<style type="text/css">
	.st0{fill:#FE864F;}
	.st1{fill:#F2F2F2;}
	.st2{enable-background:new    ;}
</style>
<g>
	<rect x="2.9" y="55.5" class="st0" width="43.3" height="10.8"/>
	<path class="st1" d="M2.9,71.7h27.1v21.7h48.1c0,0-10.6,10.8-34.1,10.8S5.1,84.1,2.9,71.7z"/>
	<path class="st1" d="M2.9,50h27.3V28.2h47.9c0,0-10.6-10.6-34.1-10.6S5.1,37.7,2.9,50z"/>
	<polygon class="st1" points="35.3,33.8 67.8,33.8 78.7,50.1 67.8,50.1 67.8,60.9 51.6,88 51.6,50.1 35.3,50.1 	"/>
	<polygon class="st0" points="67.8,88 57.1,88 67.8,69.5 	"/>
	<polygon class="st0" points="78.7,33.8 73.2,33.8 78.7,42.5 	"/>
</g>
<g class="st2">
	<path class="st0" d="M153.5,64.4h-32.5c0.4,5.8,4.1,8.7,11,8.7c2.2,0,4.2-0.3,6.2-1c2-0.7,3.7-1.7,5.2-2.9l5.1,8.1
		c-2.4,1.9-5.1,3.3-8.1,4.3c-3.1,0.9-6.3,1.4-9.6,1.4c-4.4,0-8.2-0.8-11.5-2.3c-3.3-1.6-5.8-3.8-7.6-6.7c-1.8-2.9-2.6-6.2-2.6-10
		c0-4.7,1.1-8.9,3.2-12.7c2.1-3.8,5.1-6.7,8.9-8.8s8.1-3.2,12.9-3.2c4.1,0,7.7,0.8,10.7,2.3c3,1.5,5.4,3.7,7,6.6
		c1.7,2.8,2.5,6.1,2.5,9.9C154.2,59.9,153.9,62.1,153.5,64.4z M126.1,50.8c-2,1.6-3.4,3.7-4.3,6.4h21.1c0-2.7-0.9-4.9-2.6-6.4
		c-1.7-1.6-4-2.3-6.9-2.3C130.5,48.5,128.1,49.3,126.1,50.8z"/>
	<path class="st0" d="M209.2,39.9l-8.4,42.5h-11.7l0.8-4.2c-3.5,3.2-7.9,4.8-13,4.8c-3.3,0-6.4-0.8-9.2-2.3c-2.8-1.5-5-3.7-6.7-6.6
		c-1.7-2.9-2.5-6.2-2.5-10.1c0-4.7,1-8.9,3.1-12.7c2.1-3.8,4.9-6.7,8.5-8.8c3.6-2.1,7.5-3.2,11.8-3.2c6.5,0,11.1,2.1,13.8,6.4
		l1.1-5.8H209.2z M187.1,71c1.9-1.2,3.4-2.8,4.4-4.9c1.1-2.1,1.6-4.5,1.6-7.3c0-2.9-0.9-5.2-2.6-6.9c-1.7-1.7-4.1-2.5-7.1-2.5
		c-2.4,0-4.6,0.6-6.5,1.8s-3.4,2.8-4.4,4.9c-1.1,2.1-1.6,4.5-1.6,7.3c0,2.9,0.9,5.2,2.6,6.9c1.7,1.7,4.1,2.5,7.1,2.5
		C183.1,72.8,185.2,72.2,187.1,71z"/>
	<path class="st0" d="M217.1,81.8c-3.3-0.8-5.9-1.9-7.7-3.2l4.7-8.9c1.8,1.2,4.1,2.2,6.8,2.9c2.7,0.7,5.3,1.1,8,1.1
		c2.8,0,4.9-0.4,6.2-1.1c1.4-0.7,2.1-1.7,2.1-3c0-1.1-0.6-1.8-1.8-2.3s-3.2-1-5.8-1.5c-3.1-0.6-5.6-1.2-7.5-1.9
		c-2-0.7-3.7-1.8-5.1-3.4c-1.4-1.6-2.2-3.7-2.2-6.4c0-4.7,2-8.3,5.9-11c3.9-2.6,9.1-3.9,15.4-3.9c2.9,0,5.8,0.3,8.6,0.9
		c2.8,0.6,5.2,1.5,7.1,2.6l-4.4,9c-3.5-2.2-7.7-3.2-12.6-3.2c-2.7,0-4.7,0.4-6.1,1.2c-1.4,0.8-2.1,1.8-2.1,3c0,1.1,0.6,1.9,1.8,2.4
		c1.2,0.5,3.2,1,6.1,1.6c3,0.6,5.5,1.2,7.4,1.9c1.9,0.7,3.6,1.8,5,3.3c1.4,1.5,2.1,3.6,2.1,6.2c0,4.7-2,8.4-6,11
		c-4,2.6-9.1,3.9-15.4,3.9C223.9,83,220.4,82.6,217.1,81.8z"/>
	<path class="st0" d="M303.9,39.9l-28.3,45.3c-3.1,4.9-6,8.4-8.9,10.3c-2.9,1.9-6.4,2.8-10.5,2.8c-2.2,0-4.4-0.3-6.5-1
		c-2.1-0.7-3.8-1.6-5-2.7l5.7-8.8c1.9,1.7,4.2,2.6,6.8,2.6c1.6,0,2.9-0.4,4.1-1.2c1.2-0.8,2.3-2.1,3.6-4l0.4-0.7l-9.8-42.6h12.3
		l6.3,28.9l17.7-28.9H303.9z"/>
	<path class="st1" d="M318.4,67.3c-0.1,0.4-0.2,1-0.2,1.7c0,2.7,1.5,4.1,4.5,4.1c1.6,0,3.3-0.5,5-1.5l1.8,8.8
		c-2.7,1.7-6.3,2.5-10.6,2.5c-4,0-7.2-1.1-9.6-3.2c-2.4-2.1-3.6-5-3.6-8.7c0-1.1,0.1-2.3,0.4-3.7l3.4-17.1h-6.6l1.9-9.5h6.6
		l2.1-10.3h12.3l-2.1,10.3h10.6l-1.9,9.5h-10.6L318.4,67.3z"/>
	<path class="st1" d="M380.5,43c2.8,2.5,4.2,6.1,4.2,10.7c0,1.7-0.2,3.4-0.6,5.1l-4.7,23.5H367l4.6-22.7c0.2-0.9,0.3-1.9,0.3-2.9
		c0-2.2-0.6-3.9-1.8-5.1c-1.2-1.2-3-1.7-5.4-1.7c-3.2,0-5.8,0.9-7.9,2.7c-2.1,1.8-3.5,4.5-4.2,8.2l-4.3,21.6H336l11.7-58.6H360
		l-3.9,20c3.6-3,8-4.5,13.1-4.5C373.9,39.2,377.7,40.5,380.5,43z"/>
	<path class="st1" d="M431.8,47.3l-26.2,25.6h21.8l-1.9,9.5h-37.9l1.5-7.4l26.2-25.6h-20.5l1.9-9.5h36.5L431.8,47.3z"/>
</g>
</svg>
